# xmcd
#
# Track frame offsets:
# 150
# 6147
# 11079
# 18285
# 24707
# 31934
# 36277
# 41021
# 48669
# 51953
# 58724
# 60956
# 68580
# 73950
# 80707
# 88237
# 93834
# 96843
#
# Disc length: 1375 seconds
#
# Revision: 1
# Processed by: cddbd v1.5.2PL0 Copyright (c) Steve Scherf et al.
# Submitted via: CedeCatalogueitor 2.6.0.6 http://personales.ya.com/cdcatalogueitor
#
DISCID=ee055d12
DTITLE=Kriminalistika - Split
DYEAR=1900
DGENRE=
TTITLE0=El Amor 
TTITLE1=Tumblepop 
TTITLE2=Impetigogo 
TTITLE3=WBI/Maduro 
TTITLE4=	La Puta Vengadora 
TTITLE5=Tu Sabes Hacer Eso! 
TTITLE6=Mimosong 
TTITLE7=Cebo En El Bowue 
TTITLE8=Sonoramatancera 
TTITLE9=Rot (Cover) 
TTITLE10=Bulla 
TTITLE11=Bulla 
TTITLE12=Ciclo Vital 
TTITLE13=Chapas 
TTITLE14=Hipertrofiados y Paranoides 
TTITLE15=Hsistemáticosnuff 
TTITLE16=Papas Fritas y Control Remoto 
TTITLE17=Somos un Engranaje Mas 
EXTD=
EXTT0=
EXTT1=
EXTT2=
EXTT3=
EXTT4=
EXTT5=
EXTT6=
EXTT7=
EXTT8=
EXTT9=
EXTT10=
EXTT11=
EXTT12=
EXTT13=
EXTT14=
EXTT15=
EXTT16=
EXTT17=
PLAYORDER=
